<svg xmlns="http://www.w3.org/2000/svg" viewBox="0 0 500 500"><g id="freepik--background-complete--inject-5"><path d="M398.57,104s-7.86-8.68-16.35-12.47-16.64.39-21,1-7.89-2.3-9.45-1.52,2.68,7.31,2.68,7.31-5.87-.11-5.11,2.58A32.76,32.76,0,0,0,368,120.74c12.46,5.06,20-.17,20-.17s-8.19,6-8.46,12.44,5.05,25.61,8.4,27.43,3.58-1.16,5.69-1.3,2.79,3.65,4.58,3.79,1.31-2.13,4.73-5.83,16.76-10.43,15.95-21.68c0,0,1.1,9.08,9,13.86s11.3,7.87,12.59,8.22,2.3-3.36,2.3-3.36,7.27,2.66,8.63,1.38-2.66-4.42-3.18-7.11.5-13.38-2.82-20.13-12.51-10.85-12.51-10.85,10.44,5,18.4,3.24,11.19-6.39,10.82-7.92-2.5-1.47-3.2-2.86,2.08-1.87,1.43-3.38-3.85-1.08-7.46-2.6-7.24-5-15.67-6.48-14.35,7.67-14.35,7.67,4.6-6.35,1.94-14-9.74-13-12.46-15.68S408.1,64.84,406.25,65s-2.92,4-4,4.34-2.69-4.7-4.7-5.14-7.83,11.39-8.36,17.2S388.42,94.55,398.57,104Z" style="fill:#ebebeb"></path><path d="M411.77,110.38a14,14,0,0,0-3.8-2.9c-2-.88-3.87.09-4.89.24s-1.83-.54-2.19-.35.62,1.69.62,1.69-1.36,0-1.19.6a7.62,7.62,0,0,0,4.35,4.61c2.9,1.18,4.64,0,4.64,0s-1.91,1.39-2,2.9,1.18,6,2,6.37.84-.27,1.33-.3.64.85,1.06.88.31-.5,1.1-1.36,3.89-2.42,3.71-5a4.73,4.73,0,0,0,2.08,3.22c1.83,1.11,2.63,1.83,2.93,1.91s.53-.78.53-.78,1.69.61,2,.32-.62-1-.74-1.65.12-3.11-.66-4.68a6.6,6.6,0,0,0-2.9-2.52,8,8,0,0,0,4.27.75c1.85-.42,2.6-1.49,2.52-1.84s-.58-.34-.75-.67.49-.43.34-.78-.9-.25-1.74-.61a11.72,11.72,0,0,0-3.64-1.5c-2-.35-3.34,1.78-3.34,1.78a3.82,3.82,0,0,0,.46-3.26,9.65,9.65,0,0,0-2.9-3.64c-.63-.62-1-2.46-1.41-2.42s-.67.93-.93,1-.63-1.09-1.09-1.19-1.82,2.64-1.95,4S409.41,108.19,411.77,110.38Z" style="fill:#fff"></path><path d="M414.82,112.92a32.25,32.25,0,0,1-2.51-7.35c-.55-2.52-.93-5.08-1.24-7.66s-.62-5.19-1.12-7.8-1.21-5.31-3-7.31c1.28,2.32,1.52,4.92,1.83,7.49s.46,5.19.78,7.81a45.59,45.59,0,0,0,1.62,7.78A20.45,20.45,0,0,0,414.82,112.92Z" style="fill:#a6a6a6"></path><path d="M408.66,82.46a1.75,1.75,0,1,0-1.37,2.05A1.75,1.75,0,0,0,408.66,82.46Z" style="fill:#a6a6a6"></path><path d="M414.69,112.58a32.56,32.56,0,0,1-3.69,6.83c-1.47,2.12-3.09,4.14-4.77,6.13s-3.39,4-5,6.12-3.07,4.5-3.31,7.17c.83-2.52,2.57-4.46,4.24-6.43s3.5-3.87,5.19-5.89A44.89,44.89,0,0,0,412,120,20.72,20.72,0,0,0,414.69,112.58Z" style="fill:#a6a6a6"></path><path d="M396.54,137.81a1.74,1.74,0,1,0,2.44-.4A1.75,1.75,0,0,0,396.54,137.81Z" style="fill:#a6a6a6"></path><path d="M414.78,113c2.23,1.43,4.44,2.84,6.58,4.33a64.77,64.77,0,0,1,6.06,4.86,63.42,63.42,0,0,1,5.4,5.59c1.69,2,3.37,4,5.18,6-1.34-2.28-2.68-4.55-4.25-6.7a40.07,40.07,0,0,0-5.31-6,39.14,39.14,0,0,0-6.45-4.73A42.84,42.84,0,0,0,414.78,113Z" style="fill:#a6a6a6"></path><path d="M439.09,132.37a1.75,1.75,0,1,1-2.46.28A1.75,1.75,0,0,1,439.09,132.37Z" style="fill:#a6a6a6"></path><path d="M414.82,112.92a57,57,0,0,1,5.86,7.29,56.29,56.29,0,0,1,4.35,8.2,81.51,81.51,0,0,0,4.21,8.48,39.34,39.34,0,0,0,5.78,7.53,77.77,77.77,0,0,1-4.74-8.1c-1.39-2.77-2.59-5.65-3.87-8.54a41,41,0,0,0-4.77-8.26A33.84,33.84,0,0,0,414.82,112.92Z" style="fill:#a6a6a6"></path><path d="M436.46,143.43A1.74,1.74,0,1,1,434,143,1.75,1.75,0,0,1,436.46,143.43Z" style="fill:#a6a6a6"></path><path d="M414.82,112.92a29.79,29.79,0,0,0-4.55-2.55,21.39,21.39,0,0,0-2.45-1,24.12,24.12,0,0,0-2.5-.78A50.48,50.48,0,0,0,395,107c-3.47-.21-6.94-.23-10.38-.19-1.73,0-3.44,0-5.15-.1a12.49,12.49,0,0,1-5-1.06,11.43,11.43,0,0,0,4.89,1.79c1.72.27,3.46.42,5.19.53,3.46.24,6.91.3,10.33.54a73.42,73.42,0,0,1,10.16,1.24A43.67,43.67,0,0,1,414.82,112.92Z" style="fill:#a6a6a6"></path><path d="M374.23,107.39a1.74,1.74,0,1,1,2-1.48A1.73,1.73,0,0,1,374.23,107.39Z" style="fill:#a6a6a6"></path><path d="M414.82,112.92c5.25.34,10.46-.66,15.56-1.41a101.92,101.92,0,0,1,15.42-1.6c-5.15-1.17-10.52-.68-15.66.1-2.57.42-5.13.92-7.67,1.44S417.4,112.51,414.82,112.92Z" style="fill:#a6a6a6"></path><path d="M445.87,111.65a1.75,1.75,0,1,0-1.82-1.67A1.74,1.74,0,0,0,445.87,111.65Z" style="fill:#a6a6a6"></path><path d="M414.82,112.92a26.93,26.93,0,0,0,6.28-1.77c2-.8,4-1.77,5.9-2.66s3.87-1.78,5.86-2.54,4-1.39,6.12-2a25,25,0,0,0-6.48.85,35.67,35.67,0,0,0-6.14,2.3C422.43,109,418.8,111.17,414.82,112.92Z" style="fill:#a6a6a6"></path><path d="M439.47,105.65a1.75,1.75,0,1,0-2.16-1.19A1.75,1.75,0,0,0,439.47,105.65Z" style="fill:#a6a6a6"></path><path d="M116,388.53s9-5.23,6.53-18.39S110.52,340.61,109,340s-4.91,4.72-4.91,4.72-1.78-7.74-3.71-7.78-16.53,17.22-16.94,28.2,7.29,21.93,7.29,21.93-7.3-11.32-18.85-12.32-15.44.66-20.05.19-8.84-1.72-9.62-1.15,2.41,4.67,2.41,4.67-5.56-1.26-6.55-.13,2.95,6.81,3.47,9.9,5,22.47,35,22.86c0,0-17.32,8.53-19.79,16.19s-3.61,17.29-4.82,20-2.81,5.54,4.56,3.37c0,0-3.56,4.94-1.46,5.95s21-1.65,30.11-8.67c6.44-4.95,10.17-10.6,12.11-20.78,0,0-1.28,16.17,8.43,22.53s20,13.59,22,12.66,1.12-3.43,2.66-3.21,4,3.34,6.15,2.52c.91-.33-.27-6,.2-10s3-16.71.71-22.35-8.67-14.24-15.57-16.5c0,0,11.81,7.37,25.75,4.17s19-16.41,18.28-17.77-3.24-2-3.6-3.35,4.84-3,3.85-5.32-4.69-.86-10.44-2.52-14.52-7.22-23-6.81S116,388.53,116,388.53Z" style="fill:#dbdbdb"></path><path d="M105.76,400.47s2.57-1.49,1.87-5.25-3.42-8.45-3.86-8.63-1.41,1.35-1.41,1.35-.5-2.21-1.06-2.22-4.72,4.92-4.84,8.07,2.08,6.27,2.08,6.27-2.08-3.24-5.39-3.53-4.41.19-5.73.06a13.94,13.94,0,0,0-2.75-.33c-.23.16.69,1.34.69,1.34s-1.6-.37-1.88,0,.85,1.95,1,2.83,1.42,6.43,10,6.54c0,0-4.95,2.44-5.66,4.63s-1,4.94-1.38,5.71-.8,1.58,1.31,1c0,0-1,1.42-.42,1.7s6-.47,8.61-2.48a8.75,8.75,0,0,0,3.47-5.94s-.37,4.63,2.41,6.44,5.73,3.89,6.29,3.63.32-1,.76-.92,1.13.95,1.76.72c.26-.1-.08-1.71.06-2.87s.85-4.78.2-6.39-2.48-4.07-4.45-4.72a10.63,10.63,0,0,0,7.36,1.19c4-.91,5.44-4.69,5.23-5.08s-.93-.57-1-1,1.39-.85,1.1-1.52-1.34-.25-3-.72-4.15-2.07-6.58-1.95A9.58,9.58,0,0,0,105.76,400.47Z" style="fill:#fff"></path><path d="M101.69,404.64a9.5,9.5,0,0,1,3.19-3.88c1.31-1.09,2.71-2.13,4-3.35a19.41,19.41,0,0,0,3.36-4.12,12.4,12.4,0,0,0,1.33-5.3,42.43,42.43,0,0,0-1.1-10.41,66.87,66.87,0,0,0-3-9.94c.32,1.7.67,3.38,1,5.08s.61,3.38.85,5.07a57.73,57.73,0,0,1,.73,10.12,11.33,11.33,0,0,1-1.05,4.64,22.66,22.66,0,0,1-2.94,4c-1.12,1.26-2.4,2.39-3.64,3.61A9,9,0,0,0,101.69,404.64Z" style="fill:#a6a6a6"></path><path d="M100.12,369.71a30,30,0,0,0-4.53,8.07,15.57,15.57,0,0,0-.89,9.42c.86,3,1.76,5.86,2.73,8.78s2,5.78,3.17,8.64q-.87-4.53-2-9c-.74-3-1.61-6-2.41-8.85a11,11,0,0,1-.31-4.26,22,22,0,0,1,.86-4.36A51.24,51.24,0,0,1,100.12,369.71Z" style="fill:#a6a6a6"></path><path d="M137.68,401.67a31.58,31.58,0,0,0-9.46-.42,47.93,47.93,0,0,0-9.34,1.83,46.71,46.71,0,0,1-9,1.92,29.36,29.36,0,0,1-9.25-.38,21.45,21.45,0,0,0,9.33,1.58,35.67,35.67,0,0,0,9.4-1.65,71.44,71.44,0,0,1,9-2.11A53.42,53.42,0,0,1,137.68,401.67Z" style="fill:#a6a6a6"></path><path d="M121.7,444.28a32.84,32.84,0,0,0-.81-11.58,21.56,21.56,0,0,0-2.19-5.51,52,52,0,0,0-3.46-4.74c-2.43-3-4.92-5.94-7.4-8.86q-1.87-2.19-3.62-4.47a22,22,0,0,1-3.08-4.83,18.85,18.85,0,0,0,2.46,5.26c1,1.63,2.16,3.21,3.31,4.77,2.28,3.12,4.74,6.08,7.12,9.09a55.36,55.36,0,0,1,3.42,4.52,24.19,24.19,0,0,1,2.3,5.1,34.51,34.51,0,0,1,1.32,5.53A45.28,45.28,0,0,1,121.7,444.28Z" style="fill:#a6a6a6"></path><path d="M101.14,404.63a31.46,31.46,0,0,0-11.68,4.74,21.73,21.73,0,0,0-6.76,6.83,26.53,26.53,0,0,1-1.81,2.44A64.9,64.9,0,0,1,71.78,427c-1.61,1.33-3.25,2.65-4.75,4.15a12.77,12.77,0,0,0-3.45,5.26,13.73,13.73,0,0,1,3.94-4.72c1.58-1.34,3.27-2.56,5-3.77a51.23,51.23,0,0,0,9.58-8.3A23.16,23.16,0,0,0,84,417a22,22,0,0,1,1.76-2.47,26.68,26.68,0,0,1,4.43-4.19,33.07,33.07,0,0,1,5.24-3.26A41.06,41.06,0,0,1,101.14,404.63Z" style="fill:#a6a6a6"></path><path d="M101.14,404.29a38.55,38.55,0,0,0-10-7.07,40.74,40.74,0,0,0-11.7-3.91c-4.12-.71-8.2-.59-12.22-.87-2-.11-4-.28-6-.55a20.12,20.12,0,0,1-5.88-1.35,9.46,9.46,0,0,0,2.79,1.29c1,.32,2,.57,3,.81,2,.42,4,.72,6.06,1,4.07.57,8.17.49,12.07,1.21a49.32,49.32,0,0,1,11.46,3.46A47,47,0,0,1,96,401,45.67,45.67,0,0,1,101.14,404.29Z" style="fill:#a6a6a6"></path><path d="M100.83,404.82c-1.11,2.72-2.2,5.44-3.25,8.15s-2.13,5.44-3.41,8a18.65,18.65,0,0,1-1,1.82,9.39,9.39,0,0,1-1.35,1.52c-1,1-2.13,1.93-3.23,2.87l-6.79,5.55a63,63,0,0,0,7.52-4.6,39.49,39.49,0,0,0,3.5-2.75,10.21,10.21,0,0,0,1.59-1.73,19.24,19.24,0,0,0,1.15-2,56.66,56.66,0,0,0,3.17-8.28A76.24,76.24,0,0,0,100.83,404.82Z" style="fill:#a6a6a6"></path><path d="M120.47,443.39a1.77,1.77,0,1,0,2.46,2.55,1.77,1.77,0,1,0-2.46-2.55Z" style="fill:#a6a6a6"></path><path d="M54.07,389.26a1.78,1.78,0,0,0,0,2.51,1.77,1.77,0,1,0,2.55-2.46A1.78,1.78,0,0,0,54.07,389.26Z" style="fill:#a6a6a6"></path><path d="M80.55,431.45A1.77,1.77,0,1,0,83,434a1.77,1.77,0,1,0-2.46-2.55Z" style="fill:#a6a6a6"></path><path d="M62.35,435.14a1.77,1.77,0,1,0,2.51,0A1.77,1.77,0,0,0,62.35,435.14Z" style="fill:#a6a6a6"></path><path d="M136.45,400.4a1.77,1.77,0,1,0,2.5.05A1.76,1.76,0,0,0,136.45,400.4Z" style="fill:#a6a6a6"></path><path d="M98.89,368.43a1.78,1.78,0,1,0,2.51.05A1.77,1.77,0,0,0,98.89,368.43Z" style="fill:#a6a6a6"></path><path d="M108.35,366.37a1.77,1.77,0,1,0,2.46,2.55,1.77,1.77,0,1,0-2.46-2.55Z" style="fill:#a6a6a6"></path><path d="M340.29,68.12s-1.18-7.93-11.32-9.93-24.62.13-25.49,1.06,2,4.87,2,4.87-6.06-.94-6.64.43,7.63,16.79,15.4,20.22,17.82,1,17.82,1-10.22,2-14.23,10-3.94,11.26-5.6,14.44-3.76,5.85-3.58,6.57,4.05-.39,4.05-.39-2.5,3.63-2,4.66,5.73-.17,8.1.34,17.54,2.86,26.41-18.6c0,0,1.17,14.87,6,18.83s11.37,7.53,12.94,9.17,3.17,3.59,3.72-2.32c0,0,2.53,4,3.85,2.76s4.82-15.53,2.39-24.09c-1.71-6-4.7-10.33-11.45-14.63,0,0,11.24,5.54,18.58.39s15.48-10.5,15.37-12.16S394.45,79,395.05,78s3.52-1.89,3.57-3.7c0-.75-4.37-1.52-7.14-3s-11.14-6.92-15.84-6.89-12.7,2.15-16.29,6.45c0,0,8.66-6.37,10.35-17.29s-6.33-18.34-7.52-18.2-2.36,1.76-3.43,1.63S358,32.63,356,32.68s-2,3.12-4.79,6.77S341.9,47.8,339.77,54,340.29,68.12,340.29,68.12Z" style="fill:#dbdbdb"></path><path d="M346,78.85A3.73,3.73,0,0,0,342.71,76a17.57,17.57,0,0,0-7.29.3c-.25.27.57,1.4.57,1.4s-1.73-.27-1.9.12,2.18,4.8,4.41,5.78a9.28,9.28,0,0,0,5.09.3s-2.92.57-4.07,2.86-1.12,3.22-1.6,4.13a11.69,11.69,0,0,0-1,1.88c.05.21,1.15-.11,1.15-.11s-.71,1-.56,1.34,1.64-.05,2.32.09,5,.82,7.55-5.32c0,0,.34,4.25,1.71,5.39s3.25,2.15,3.7,2.62.91,1,1.07-.66c0,0,.72,1.13,1.1.79a12.2,12.2,0,0,0,.68-6.9,6.78,6.78,0,0,0-3.27-4.18s3.21,1.59,5.31.11,4.43-3,4.4-3.48-.62-.51-.44-.8,1-.54,1-1.06c0-.21-1.25-.44-2-.86s-3.19-2-4.53-2a6.85,6.85,0,0,0-4.66,1.84,8.28,8.28,0,0,0,3-4.94c.48-3.13-1.81-5.25-2.16-5.21s-.67.5-1,.47-.22-1.24-.78-1.23-.56.89-1.37,1.94-2.67,2.39-3.27,4.16A7.41,7.41,0,0,0,346,78.85Z" style="fill:#fff"></path><path d="M347.78,83a7.28,7.28,0,0,1-1.87-3.4c-.41-1.25-.76-2.55-1.27-3.81a15,15,0,0,0-2-3.59,9.75,9.75,0,0,0-3.43-2.47,32.19,32.19,0,0,0-7.79-2.18,50.77,50.77,0,0,0-8-.71c1.31.26,2.61.48,3.91.77s2.6.53,3.88.84a44.2,44.2,0,0,1,7.47,2.36,9,9,0,0,1,3,2.08,18.35,18.35,0,0,1,2.05,3.27c.58,1.16,1,2.41,1.55,3.65A6.93,6.93,0,0,0,347.78,83Z" style="fill:#a6a6a6"></path><path d="M322.26,74.1a23.33,23.33,0,0,0,4.5,5.56A12,12,0,0,0,333.27,83c2.39.24,4.71.42,7.08.55s4.72.21,7.1.2q-3.49-.67-7-1.13c-2.34-.32-4.74-.55-7-.8a8.47,8.47,0,0,1-3.15-1A17,17,0,0,1,327.36,79,38.84,38.84,0,0,1,322.26,74.1Z" style="fill:#a6a6a6"></path><path d="M355.94,56.29a24.18,24.18,0,0,0-3,6.67,37.69,37.69,0,0,0-1.36,7.22,35.52,35.52,0,0,1-1.2,7,22.63,22.63,0,0,1-2.92,6.53,16.58,16.58,0,0,0,3.8-6.25,27.41,27.41,0,0,0,1.51-7.21,54.9,54.9,0,0,1,1.07-7.09A40.63,40.63,0,0,1,355.94,56.29Z" style="fill:#a6a6a6"></path><path d="M382,79.93a25.39,25.39,0,0,0-8.55-2.72,16.72,16.72,0,0,0-4.58,0,39.69,39.69,0,0,0-4.39,1.13c-2.85.88-5.66,1.83-8.47,2.78-1.41.48-2.82.92-4.24,1.32a17.43,17.43,0,0,1-4.35.83,15,15,0,0,0,4.48-.26c1.47-.29,2.92-.64,4.37-1,2.89-.75,5.72-1.67,8.56-2.52,1.4-.42,2.85-.89,4.22-1.16a18.84,18.84,0,0,1,4.32-.19,26.71,26.71,0,0,1,4.34.63A36.39,36.39,0,0,1,382,79.93Z" style="fill:#a6a6a6"></path><path d="M347.61,83.36a24.34,24.34,0,0,0,.07,9.73,18.42,18.42,0,0,0,1.64,4.69,21,21,0,0,0,1.33,2.12,19.36,19.36,0,0,1,1.23,2,50,50,0,0,1,3.39,8.93c.5,1.54,1,3.09,1.62,4.6a10,10,0,0,0,2.8,4,10.48,10.48,0,0,1-2.27-4.18c-.51-1.51-.9-3.07-1.29-4.64a38.54,38.54,0,0,0-3.21-9.24,17.08,17.08,0,0,0-1.32-2.12,18.84,18.84,0,0,1-1.27-2,21,21,0,0,1-1.74-4.37,25.47,25.47,0,0,1-.84-4.69A31,31,0,0,1,347.61,83.36Z" style="fill:#a6a6a6"></path><path d="M347.37,83.26a29.86,29.86,0,0,0-7.93,5.15,31.62,31.62,0,0,0-6.15,7.28,91.12,91.12,0,0,0-4.12,8.52c-.66,1.42-1.35,2.82-2.12,4.18a15.6,15.6,0,0,1-2.65,3.83,7.2,7.2,0,0,0,1.72-1.63c.51-.61,1-1.25,1.43-1.9.88-1.31,1.67-2.68,2.44-4.06,1.56-2.76,2.68-5.72,4.31-8.32a38.19,38.19,0,0,1,5.77-7.23,34.23,34.23,0,0,1,3.48-3.1A35.27,35.27,0,0,1,347.37,83.26Z" style="fill:#a6a6a6"></path><path d="M347.66,83.63c1.63,1.58,3.28,3.13,4.93,4.67s3.29,3.08,4.75,4.73a13.27,13.27,0,0,1,1,1.25,7,7,0,0,1,.7,1.4c.43,1,.77,2.08,1.14,3.14l2,6.46a50.85,50.85,0,0,0-1.15-6.71,30.5,30.5,0,0,0-1-3.31,7.85,7.85,0,0,0-.79-1.63,13.63,13.63,0,0,0-1.09-1.39,44.06,44.06,0,0,0-5-4.64A58.58,58.58,0,0,0,347.66,83.63Z" style="fill:#a6a6a6"></path><path d="M381,80.56a1.37,1.37,0,0,0,1.79.75,1.37,1.37,0,1,0-1.79-.75Z" style="fill:#a6a6a6"></path><path d="M323.13,112.74a1.37,1.37,0,1,0,.75-1.79A1.38,1.38,0,0,0,323.13,112.74Z" style="fill:#a6a6a6"></path><path d="M361,105.8a1.37,1.37,0,1,0,.75-1.79A1.38,1.38,0,0,0,361,105.8Z" style="fill:#a6a6a6"></path><path d="M358.42,119.91a1.37,1.37,0,0,0,2.54-1,1.37,1.37,0,1,0-2.54,1Z" style="fill:#a6a6a6"></path><path d="M354.67,56.81a1.37,1.37,0,1,0,.75-1.79A1.37,1.37,0,0,0,354.67,56.81Z" style="fill:#a6a6a6"></path><path d="M321,74.62a1.37,1.37,0,0,0,1.79.75,1.37,1.37,0,1,0-1.79-.75Z" style="fill:#a6a6a6"></path><path d="M322.22,67.24a1.37,1.37,0,1,0,.75-1.78A1.37,1.37,0,0,0,322.22,67.24Z" style="fill:#a6a6a6"></path><path d="M441.5,242.91c2.16-1.12,7.21.81,8.7,3.62s2.1,10.72.12,11.77-9.21-3.44-10.38-6.49S439.19,244.11,441.5,242.91Z" style="fill:#ebebeb"></path><path d="M281.78,455.53c1.59-1.84,7-1.89,9.42.17s5.89,9.2,4.44,10.9-9.83.18-12-2.22S280.07,457.5,281.78,455.53Z" style="fill:#ebebeb"></path><path d="M112,114c.87,2.27-1.62,7.07-4.57,8.24s-10.89.89-11.71-1.2,4.45-8.76,7.6-9.59S111,111.6,112,114Z" style="fill:#ebebeb"></path><path d="M205.33,289.05c2.22,2.79,10.48-1.61,14.44-9.71s2.27-14.28-.05-15.6S208.48,266,206.65,271,204,287.34,205.33,289.05Z" style="fill:#dbdbdb"></path><path d="M461.39,225.21c3.05-2.74-6.41-20.92-13.29-23.79s-15.2-1.56-17.74,2.05,3.15,12.87,7.91,15.94S457.93,228.32,461.39,225.21Z" style="fill:#ebebeb"></path><path d="M228.86,366c10,31.72,32.39,53.07,69.45,54.95s61.51-17.11,74.64-47.66,6.44-68.23-16.23-84.34c-16.12-11.45-39.19-7-51.35-7.65s-34.66-7.34-51.84,2.43C229.33,297.46,218.86,334.28,228.86,366Z" style="fill:#ebebeb"></path><path d="M225.32,335.27A82.7,82.7,0,0,0,228.86,366c10,31.72,32.39,53.07,69.45,54.95s61.51-17.11,74.64-47.66a82.9,82.9,0,0,0,6.62-30.21A73.94,73.94,0,0,1,373.22,368c-13,28.71-37.2,41.91-74.26,40s-59.75-17.44-69.83-47.33A73.79,73.79,0,0,1,225.32,335.27Z" style="opacity:0.1"></path><path d="M225.17,337.58c1.88-20.33,11.88-38.83,28-47.54,17.17-9.25,39.23-3.33,51.4-2.71s35.71-3,51.87,7.94c15.15,10.28,23.23,29.7,23,50.11,1.33-22.83-6.71-45-22.76-56.44s-39.19-7-51.35-7.65-34.66-7.34-51.84,2.43S226.16,314.73,225.17,337.58Z" style="fill:#fff;opacity:0.30000000000000004"></path><path d="M267.56,298.24c7.13,16.05-11,67.53-19.85,64.77s-15.6-29.41-13.84-41.34C236.26,305.44,262.93,287.81,267.56,298.24Z" style="fill:#fff;opacity:0.2"></path><path d="M264.9,299.51c4.51,10.16-6.54,25.87-12.43,25.93-5.48.06-10.61-5.08-9.5-12.64C244.49,302.52,262,292.9,264.9,299.51Z" style="fill:#fff;opacity:0.2"></path><path d="M366.21,339.17c-13.21-1.25-43.59-34.59-36.57-40.38s25.78.29,31.24,6.75C368.3,314.34,374.8,340,366.21,339.17Z" style="fill:#fff;opacity:0.2"></path><path d="M344.3,289.13c-13.56-1.68-27.31,3.22-40.77,2.88-9.62-.86-20.38-4.49-30-5.63a46.13,46.13,0,0,0-10.5-.31c10.17,2.4,19.53,6.6,29.62,9.31,17.4,5.76,34.74-3,51.7-6.25Z" style="fill:#fff;opacity:0.30000000000000004"></path><path d="M282.82,87.89s14.3,41,10.42,88.56c-3.23,39.59-3.64,61.31-.85,79.95A166.34,166.34,0,0,0,301.34,291a50.82,50.82,0,0,0,9.58.63s-6.57-8.28-10.41-34.9c-2.7-18.73-.3-42.83,2.35-81.61,3.3-48-3.95-83.42-4.87-84.94C297,88.47,283.11,86.14,282.82,87.89Z" style="fill:#c7c7c7"></path><path d="M268.93,287.71c12.6-1.23,25,3.39,37.52,3,12.47.2,25.31-3.32,37.73-.5-12.71-.7-25,3.21-37.72,3.11-12.89.26-24.83-4.74-37.53-5.63Z" style="fill:#a6a6a6"></path><path d="M314.83,124.31c4.71,1.44,26.32-4.24,48.31,9.86s41.81,44.44,44,62.39S399,250,399.47,253.08s-1,10.92-2,10.94-4.61-3-16.9-8.87S343.36,242,334.37,230,311,192.26,311,175.14s2-40.34.8-45.09a29.48,29.48,0,0,0-2.71-7.31S309.22,122.59,314.83,124.31Z" style="fill:#dbdbdb"></path><path d="M309.1,122.74a29.7,29.7,0,0,1,2.72,7.31c1.19,4.75-.82,28-.81,45.08S325.37,218,334.37,230s33.89,19.33,46.19,25.18S396.42,264,397.47,264s2.46-7.83,2-10.94,9.87-38.57,7.67-56.52c-.85-7-4.37-15.87-9.67-24.92a53.05,53.05,0,0,1,5.23,15.9c2,16.15-7.33,48-6.91,50.83s-.86,9.82-1.8,9.84-4.15-2.72-15.21-8-33.44-11.85-41.53-22.64-21-33.91-21-49.31S318,132,317,127.73c-.31-1.25-.65-2.32-1-3.22a6.29,6.29,0,0,1-1.16-.2C309.22,122.59,309.1,122.74,309.1,122.74Z" style="opacity:0.1"></path><path d="M333.3,147.54A262.65,262.65,0,0,0,325,177.35c-2.13,10.08-3.88,20.34-3.85,30.67q.19-1.92.36-3.84c2.26-19.16,7.12-38,11.76-56.64Z" style="fill:#c7c7c7"></path><path d="M349.34,172.06a453.41,453.41,0,0,0-8.12,48c-.49,5.38-1.17,10.84-.55,16.23-.17-5.41.77-10.77,1.43-16.12,2.13-15.45,5.06-32.68,7.24-48.12Z" style="fill:#c7c7c7"></path><path d="M333.91,229.36c1.86-12.76,4.46-26.67,6.14-39.45-1.73,6.44-3,13-4.12,19.56a138.22,138.22,0,0,0-2,19.89Z" style="fill:#c7c7c7"></path><path d="M375,143.45c-15.66-7.3-34.46-10.85-51.68-9.07A150.41,150.41,0,0,1,375,143.45Z" style="fill:#c7c7c7"></path><path d="M403.82,184.5c-16.35-12.76-40.65-20.26-60.86-24.33,9.24,2.52,18.46,5.38,27.51,8.55,11.54,4.17,23.12,8.92,33.35,15.78Z" style="fill:#c7c7c7"></path><path d="M405.37,222.63a76.58,76.58,0,0,0-16.7-8.5,120.71,120.71,0,0,0-18-5.35c11.55,4.21,23.71,8.25,34.66,13.85Z" style="fill:#c7c7c7"></path><path d="M406.5,215.07a107.34,107.34,0,0,0-27.3-10.49c8.85,3.7,18.28,7.19,27.3,10.49Z" style="fill:#c7c7c7"></path><path d="M373.74,252.2c.56-9.77,1.67-20.43,2-30.21a115.1,115.1,0,0,0-2.08,15,81,81,0,0,0,0,15.18Z" style="fill:#c7c7c7"></path><path d="M357.48,166.4A36.64,36.64,0,0,0,344,162.59a51.12,51.12,0,0,0,13.52,3.81Z" style="fill:#c7c7c7"></path><path d="M374.28,196.1a36.54,36.54,0,0,0-13.51-3.81,51,51,0,0,0,13.51,3.81Z" style="fill:#c7c7c7"></path><path d="M331.44,144.6a77.11,77.11,0,0,0-5.79,19.11,96.62,96.62,0,0,0,5.79-19.11Z" style="fill:#c7c7c7"></path><path d="M344.83,138.63a48.27,48.27,0,0,0-21.3-1.59c7,.52,14.29,1,21.3,1.59Z" style="fill:#c7c7c7"></path><path d="M289.29,95.49s-3.05,8.27-1.87,9.36,9.27,8.93,24.29,24.05,36,42.79,45.72,62c14.14,27.88,36.35,62.17,36.35,62.17S369.41,209,361.33,192.21A291.93,291.93,0,0,0,316,124.43C303.14,110.17,289.29,95.49,289.29,95.49Z" style="fill:#c7c7c7"></path></g><g id="freepik--Cherries--inject-5"><path d="M286.42,409.37c16.32,29.93,43.07,47,80.71,41.53s58.48-29.37,65.64-62.7-7-69.89-33-81.61c-18.48-8.33-40.81.67-53.15,2.46s-36.32-.52-51.66,12.7C273.34,340.35,270.09,379.46,286.42,409.37Z" style="fill:#C53F3F"></path><path d="M432.77,388.2c-7.16,33.33-28,57.25-65.64,62.7s-64.39-11.6-80.71-41.53c-10.33-18.93-12.83-41.54-7.78-60.3a73.43,73.43,0,0,0,7.59,49.09c14.22,26.06,37.52,40.9,70.3,36.16s50.93-25.58,57.17-54.6-6.11-60.88-28.75-71.08c-9-4.05-19-3.39-28-1.76,12.43-2.92,28.74-6.64,42.82-.29C425.76,318.31,440,354.89,432.77,388.2Z" style="opacity:0.1"></path><path d="M356.83,306.91c-3.35.78-6.41,1.51-9.07,2C350.59,308.2,353.64,307.49,356.83,306.91Z" style="fill:#C53F3F"></path><path d="M277.09,381.53c-2.14-20.82,4.26-41.41,18.76-53.35,15.43-12.7,38.79-11.11,51.15-12.89s35.33-10.09,53.74-2.28c17.27,7.35,29.24,25.28,33.09,45.85-3.18-23.23-15.67-44-34.06-52.27s-40.81.67-53.15,2.46-36.32-.52-51.66,12.7S273.56,358.35,277.09,381.53Z" style="fill:#fff;opacity:0.30000000000000004"></path><path d="M309,330c11.54,13.8,8.2,69.64-1.33,69.42s-23.65-24.58-25.28-36.83C280.2,345.87,301.52,321,309,330Z" style="fill:#fff;opacity:0.2"></path><path d="M419.25,355.23c-13.54,1.36-50.68-26.16-44.77-33.38s26-4.8,32.76.62C416.44,329.85,428.05,354.35,419.25,355.23Z" style="fill:#fff;opacity:0.2"></path><path d="M387.31,309.24c-14,1-26.83,8.64-40.43,11-9.84,1-21.38-.48-31.33.28a47,47,0,0,0-10.62,1.77c10.7.4,20.95,2.77,31.62,3.5,18.64,2.35,34.35-9.92,50.76-16.51Z" style="fill:#fff;opacity:0.30000000000000004"></path><path d="M307.07,332.8c9,9.78,2.52,31.82-4.13,34.15-6.19,2.17-14-1.7-15.6-10.68C285.11,344.05,301.22,326.45,307.07,332.8Z" style="fill:#fff;opacity:0.5"></path><path d="M306.5,371.9c4,3.75-1.06,12.41-4.69,13.36-3.39.9-8.4-3.22-8.59-6.72C293,373.78,303.92,369.45,306.5,371.9Z" style="fill:#fff;opacity:0.5"></path><path d="M360.77,430.64c19.86-9,36.83-24.87,45-45.27a114.85,114.85,0,0,0,6-21.18,65.87,65.87,0,0,1-5,27.57c-7.95,19.18-25.61,34.39-45.92,38.88Z" style="opacity:0.1"></path><path d="M279.53,98.73s23.48,39.64,29.9,94.12c5.34,45.33,9.66,69.9,16.56,90.25A202.11,202.11,0,0,0,342.63,320a48,48,0,0,0,9.88-1.51s-8.48-7.81-18.19-36.9c-6.83-20.47-9.64-48.17-15.39-92.46-7.12-54.89-22.08-94.3-23.35-95.79C294.17,91.64,279.44,96.7,279.53,98.73Z" style="fill:#37474f"></path><path d="M312.65,322.86C325,319,338.47,321,350.93,318c12.55-2.43,24.68-8.66,37.74-8.45-12.9,2-24.42,8.49-37.18,11.06-12.89,3-25.92.47-38.84,2.25Z" style="fill:#263238"></path><path d="M300.87,84.38S279.75,115,271,167.05c-4.51,27-6.89,60.92-11.1,77.81-7.55,30.22-18.83,46.14-29.33,58.76,0,0-3.24.23-9-4,0,0,20.56-22.45,28.38-59.46,5.9-27.92,4.79-53.55,10.21-82.21,9.63-50.86,21.31-70.14,22.8-71.36S301.3,82.44,300.87,84.38Z" style="fill:#37474f"></path><path d="M194.55,284.65c12.2,3.57,22,12.53,33.84,16.87,11.55,4.85,24.82,6.38,35.35,13.66-11.59-5.41-24.52-6.37-36.32-11.22-12.11-4.6-21.37-13.73-32.87-19.31Z" style="fill:#263238"></path><path d="M122.51,344.84c-3.15,35.17,10.08,65.24,45.64,82.2s67.27,8.35,92.61-16.23,34.17-64.24,18.52-89.29c-11.12-17.8-35.53-22.9-47.19-28.46s-31-21.34-51.8-18.78C151,277.86,125.66,309.68,122.51,344.84Z" style="fill:#C53F3F"></path><path d="M260.76,410.81c-25.34,24.58-57,33.2-92.61,16.23s-48.79-47-45.64-82.2c2.42-27,17.94-52.09,38.31-63.86-16.52,10.82-28.87,31.7-30.88,54.15-2.76,30.68,8.79,56.91,39.81,71.72s58.69,7.28,80.79-14.17,29.81-56,16.16-77.9c-4.24-6.79-10.7-11.45-17.48-15,11,4.42,23.11,10.59,30.06,21.71C294.93,346.57,286.11,386.25,260.76,410.81Z" style="opacity:0.1"></path><path d="M178.88,407.14c21.58,3.05,44.43-1.28,62.2-14.17a114.43,114.43,0,0,0,16.39-14.68A66.83,66.83,0,0,1,243,395.44c-17.33,14.66-42.75,19.44-64.12,11.7Z" style="opacity:0.1"></path><path d="M130.5,315.49c10.14-19.16,27.49-33.22,46.85-35.16,20.6-2.07,39.8,12.75,51.48,18.32s36.23,11.64,47.6,29c10.65,16.27,10.64,38.61,2.12,58.54,10.63-21.84,11.81-46.89.73-64.62s-35.53-22.9-47.19-28.46-31-21.34-51.8-18.78S140.79,293.49,130.5,315.49Z" style="fill:#fff;opacity:0.30000000000000004"></path><path d="M195.44,291.76c-2.22,18.5-46.72,55.61-53.31,48.27s1.76-35.3,9.84-45.22C163,281.31,196.88,279.72,195.44,291.76Z" style="fill:#fff;opacity:0.2"></path><path d="M189.34,291.75c-.6,13.28-20.82,24.17-27.15,21.09-5.91-2.87-8.63-11.11-3.41-18.59C165.9,284.06,189.74,283.11,189.34,291.75Z" style="fill:#fff;opacity:0.5"></path><path d="M161.17,318.85c.12,5.46-9.56,8-12.8,6.08-3-1.78-3.62-8.24-1.26-10.83C150.31,310.57,161.09,315.3,161.17,318.85Z" style="fill:#fff;opacity:0.5"></path><path d="M268.08,374.63c-12.44-6.62-28.6-51.7-19.36-54.51s25.16,10.81,27.86,19.37C280.27,351.14,276.17,378.93,268.08,374.63Z" style="fill:#fff;opacity:0.2"></path><path d="M259.54,98.58c-8.45.18-41.5-19.25-84.39-6.18s-89.74,54-101.72,82.6-11.38,92-13.6,96.94-3.5,18.48-1.78,19,9-2.85,32.06-6.79,67.57-4.47,88-20.12,56.1-51.44,64.08-79.72,15.47-67.56,19.65-74.86a50.73,50.73,0,0,1,7.88-10.81S269.62,98.36,259.54,98.58Z" style="fill:#455a64"></path><path d="M269.74,98.65a50.73,50.73,0,0,0-7.88,10.81c-4.18,7.3-11.67,46.58-19.65,74.86s-43.64,64.09-64.09,79.73-65,16.16-88,20.11-30.33,7.31-32,6.79-.44-14.08,1.78-19,1.63-68.3,13.6-96.94c4.67-11.15,14.62-24.17,27.57-36.67-7.35,8.29-13,16.51-16,23.84-10.77,25.76-10.24,82.75-12.22,87.19s-3.16,16.62-1.6,17.08,8.11-2.56,28.83-6.1,60.76-4,79.14-18.09,50.46-46.26,57.64-71.69,13.91-60.76,17.67-67.33a56.86,56.86,0,0,1,3.1-4.86,9.94,9.94,0,0,0,2,.21C269.61,98.36,269.74,98.65,269.74,98.65Z" style="opacity:0.1"></path><path d="M218.23,128.37a454.27,454.27,0,0,1-.2,53.09c-1.18,17.64-3.06,35.41-7.91,52.46.38-2.18.77-4.36,1.19-6.52,5.18-32.69,5.89-66,6.92-99Z" style="fill:#37474f"></path><path d="M180.32,161.4a775,775,0,0,1-8.91,83.11c-1.69,9.11-3.11,18.44-6.65,27.06,2.8-8.85,3.74-18.15,5.15-27.29,3.65-26.52,6.84-56.35,10.41-82.88Z" style="fill:#37474f"></path><path d="M179.16,263.25c2.87-21.94,5-46.13,8.21-68-.14,11.45-1.05,22.86-2.3,34.23s-2.93,22.73-5.91,33.8Z" style="fill:#37474f"></path><path d="M151.27,102.21c29.25-4.76,62-1.89,89.59,9.06-29-8.44-59.48-11.11-89.59-9.06Z" style="fill:#37474f"></path><path d="M84.53,156.62c33-13.47,76.59-14.56,111.87-11.89-16.44-.13-33,.31-49.42,1.34-21,1.52-42.35,4-62.45,10.55Z" style="fill:#37474f"></path><path d="M64.24,218.89c10.13-3.61,20.87-5.22,31.54-6.26a206.81,206.81,0,0,1,32.16-.5c-21,1.58-43,2.61-63.7,6.76Z" style="fill:#37474f"></path><path d="M65.89,205.88a184.22,184.22,0,0,1,50-4.64c-16.35,2-33.54,3.38-50,4.64Z" style="fill:#37474f"></path><path d="M102.74,282.45c3.62-16.39,6.75-34.53,10.68-50.85a200.28,200.28,0,0,1-3.55,25.8c-1.77,8.5-3.8,17-7.13,25.05Z" style="fill:#37474f"></path><path d="M169.51,148.28a62.64,62.64,0,0,1,24.1,0,87.62,87.62,0,0,1-24.1,0Z" style="fill:#37474f"></path><path d="M127.94,189.52a62.83,62.83,0,0,1,24.1,0,86.85,86.85,0,0,1-24.1,0Z" style="fill:#37474f"></path><path d="M222.66,124.38a131.88,131.88,0,0,1,.68,34.26,167,167,0,0,1-.68-34.26Z" style="fill:#37474f"></path><path d="M203.32,108.28a82.82,82.82,0,0,1,35.93,7.29c-11.82-2.4-24.06-5-35.93-7.29Z" style="fill:#37474f"></path><path d="M122.4,252.92c24.33-5.32,49.71-12,68.73-28.89a76.37,76.37,0,0,0,7.38-7.94,47,47,0,0,1-6,9.29c-16.33,19.09-45.69,27.63-70.15,27.54Z" style="opacity:0.1"></path><path d="M315.14,62.85s1.2,15.08-1.26,16.34-19.47,10.43-51.32,28.43S183.2,161.56,158.2,188.74c-36.32,39.48-89,85.8-89,85.8S130,213,151.13,189.13c38.32-43.34,78.42-73.34,106.37-90.9S315.14,62.85,315.14,62.85Z" style="fill:#37474f"></path><polygon points="401.61 319.96 390.19 322.07 387.64 334.1 385.1 322.07 373.68 319.96 385.05 317.18 387.64 305.82 390.24 317.18 401.61 319.96" style="fill:#fff"></polygon><polygon points="249.06 416.84 241.04 418.32 239.25 426.77 237.46 418.32 229.44 416.83 237.42 414.88 239.25 406.9 241.07 414.88 249.06 416.84" style="fill:#fff"></polygon><polygon points="238.95 193.3 230.94 194.78 229.14 203.23 227.35 194.78 219.34 193.29 227.32 191.34 229.14 183.36 230.97 191.34 238.95 193.3" style="fill:#fff"></polygon><polygon points="142.08 367.73 134.06 369.21 132.27 377.66 130.48 369.21 122.47 367.73 130.45 365.77 132.27 357.79 134.1 365.77 142.08 367.73" style="fill:#fff"></polygon><polygon points="114.42 146.28 106.41 147.76 104.62 156.21 102.83 147.76 94.81 146.28 102.79 144.33 104.62 136.35 106.44 144.33 114.42 146.28" style="fill:#fff"></polygon><path d="M155.87,338.65a1.65,1.65,0,0,0,0,3.3A1.65,1.65,0,0,0,155.87,338.65Z" style="fill:#fff"></path><path d="M251.39,402.46a1.65,1.65,0,0,0,0,3.3A1.65,1.65,0,0,0,251.39,402.46Z" style="fill:#fff"></path><path d="M172.9,278.56a1.65,1.65,0,0,0,0,3.3A1.65,1.65,0,0,0,172.9,278.56Z" style="fill:#fff"></path><path d="M344.59,421.07a1.65,1.65,0,0,0,0,3.29A1.65,1.65,0,0,0,344.59,421.07Z" style="fill:#fff"></path><path d="M373.68,328.9a1.17,1.17,0,0,0,0,2.33A1.17,1.17,0,0,0,373.68,328.9Z" style="fill:#fff"></path><path d="M412.12,403a1.17,1.17,0,0,0,0,2.33A1.17,1.17,0,0,0,412.12,403Z" style="fill:#fff"></path><path d="M224.16,173.17a1.17,1.17,0,0,0,0,2.34A1.17,1.17,0,0,0,224.16,173.17Z" style="fill:#fff"></path><path d="M155.56,158.27a1.17,1.17,0,0,0,0,2.34A1.17,1.17,0,0,0,155.56,158.27Z" style="fill:#fff"></path><path d="M290.57,95.47c-3.72,0-3.73,5.79,0,5.79S294.3,95.47,290.57,95.47Z" style="fill:#fff"></path><path d="M98.89,169c-3.73,0-3.73,5.79,0,5.79S102.61,169,98.89,169Z" style="fill:#fff"></path><path d="M401.74,334.05c-3.72,0-3.73,5.79,0,5.79S405.47,334.05,401.74,334.05Z" style="fill:#fff"></path></g></svg>